<?xml version="1.0" encoding="UTF-8" standalone="no"?>
<svg
   width="75.320129mm"
   height="92.604164mm"
   viewBox="0 0 75.320129 92.604164"
   version="1.1"
   id="svg12"
   sodipodi:docname="securepdf.svg"
   inkscape:version="1.2.2 (b0a8486541, 2022-12-01)"
   xml:space="preserve"
   xmlns:inkscape="http://www.inkscape.org/namespaces/inkscape"
   xmlns:sodipodi="http://sodipodi.sourceforge.net/DTD/sodipodi-0.dtd"
   xmlns="http://www.w3.org/2000/svg"
   xmlns:svg="http://www.w3.org/2000/svg"><defs
     id="defs16"><rect
       x="48.210772"
       y="251.21483"
       width="160.93669"
       height="51.368423"
       id="rect244" /></defs><sodipodi:namedview
     id="namedview14"
     pagecolor="#ffffff"
     bordercolor="#000000"
     borderopacity="0.25"
     inkscape:showpageshadow="2"
     inkscape:pageopacity="0.0"
     inkscape:pagecheckerboard="0"
     inkscape:deskcolor="#d1d1d1"
     inkscape:document-units="mm"
     showgrid="false"
     inkscape:zoom="2.8600001"
     inkscape:cx="142.30769"
     inkscape:cy="111.71328"
     inkscape:window-width="1920"
     inkscape:window-height="1043"
     inkscape:window-x="0"
     inkscape:window-y="197"
     inkscape:window-maximized="1"
     inkscape:current-layer="g10" /><g
     transform="translate(53.548057 -183.975276) scale(1.4843)"
     id="g10"><path
       fill="#ff2116"
       d="M-29.632812 123.94727c-3.551967 0-6.44336 2.89347-6.44336 6.44531v49.49804c0 3.55185 2.891393 6.44532 6.44336 6.44532H8.2167969c3.5519661 0 6.4433591-2.89335 6.4433591-6.44532v-40.70117s.101353-1.19181-.416015-2.35156c-.484969-1.08711-1.275391-1.84375-1.275391-1.84375a1.0584391 1.0584391 0 0 0-.0059-.008l-9.3906254-9.21094a1.0584391 1.0584391 0 0 0-.015625-.0156s-.8017392-.76344-1.9902344-1.27344c-1.39939552-.6005-2.8417968-.53711-2.8417968-.53711l.021484-.002z"
       color="#000"
       font-family="sans-serif"
       overflow="visible"
       paint-order="markers fill stroke"
       style="line-height:normal;font-variant-ligatures:normal;font-variant-position:normal;font-variant-caps:normal;font-variant-numeric:normal;font-variant-alternates:normal;font-feature-settings:normal;text-indent:0;text-align:start;text-decoration-line:none;text-decoration-style:solid;text-decoration-color:#000000;text-transform:none;text-orientation:mixed;white-space:normal;shape-padding:0;isolation:auto;mix-blend-mode:normal;solid-color:#000000;solid-opacity:1"
       id="path2" /><path
       fill="#f5f5f5"
       d="M-29.632812 126.06445h28.3789058a1.0584391 1.0584391 0 0 0 .021484 0s1.13480448.011 1.96484378.36719c.79889772.34282 1.36536982.86176 1.36914062.86524.0000125.00001.00391.004.00391.004l9.3671868 9.18945s.564354.59582.837891 1.20899c.220779.49491.234375 1.40039.234375 1.40039a1.0584391 1.0584391 0 0 0-.002.0449v40.74609c0 2.41592-1.910258 4.32813-4.3261717 4.32813H-29.632812c-2.415914 0-4.326172-1.91209-4.326172-4.32813v-49.49804c0-2.41603 1.910258-4.32813 4.326172-4.32813z"
       color="#000"
       font-family="sans-serif"
       overflow="visible"
       paint-order="markers fill stroke"
       style="line-height:normal;font-variant-ligatures:normal;font-variant-position:normal;font-variant-caps:normal;font-variant-numeric:normal;font-variant-alternates:normal;font-feature-settings:normal;text-indent:0;text-align:start;text-decoration-line:none;text-decoration-style:solid;text-decoration-color:#000000;text-transform:none;text-orientation:mixed;white-space:normal;shape-padding:0;isolation:auto;mix-blend-mode:normal;solid-color:#000000;solid-opacity:1"
       id="path4" /><path
       fill="#ff2116"
       d="M-23.40766 161.09299c-1.45669-1.45669.11934-3.45839 4.39648-5.58397l2.69124-1.33743 1.04845-2.29399c.57665-1.26169 1.43729-3.32036 1.91254-4.5748l.8641-2.28082-.59546-1.68793c-.73217-2.07547-.99326-5.19438-.52872-6.31588.62923-1.51909 2.69029-1.36323 3.50626.26515.63727 1.27176.57212 3.57488-.18329 6.47946l-.6193 2.38125.5455.92604c.30003.50932 1.1764 1.71867 1.9475 2.68743l1.44924 1.80272 1.8033728-.23533c5.72900399-.74758 7.6912472.523 7.6912472 2.34476 0 2.29921-4.4984914 2.48899-8.2760865-.16423-.8499666-.59698-1.4336605-1.19001-1.4336605-1.19001s-2.3665326.48178-3.531704.79583c-1.202707.32417-1.80274.52719-3.564509 1.12186 0 0-.61814.89767-1.02094 1.55026-1.49858 2.4279-3.24833 4.43998-4.49793 5.1723-1.3991.81993-2.86584.87582-3.60433.13733zm2.28605-.81668c.81883-.50607 2.47616-2.46625 3.62341-4.28553l.46449-.73658-2.11497 1.06339c-3.26655 1.64239-4.76093 3.19033-3.98386 4.12664.43653.52598.95874.48237 2.01093-.16792zm21.21809-5.95578c.80089-.56097.68463-1.69142-.22082-2.1472-.70466-.35471-1.2726074-.42759-3.1031574-.40057-1.1249.0767-2.9337647.3034-3.2403347.37237 0 0 .993716.68678 1.434896.93922.58731.33544 2.0145161.95811 3.0565161 1.27706 1.02785.31461 1.6224.28144 2.0729-.0409zm-8.53152-3.54594c-.4847-.50952-1.30889-1.57296-1.83152-2.3632-.68353-.89643-1.02629-1.52887-1.02629-1.52887s-.4996 1.60694-.90948 2.57394l-1.27876 3.16076-.37075.71695s1.971043-.64627 2.97389-.90822c1.0621668-.27744 3.21787-.70134 3.21787-.70134zm-2.74938-11.02573c.12363-1.0375.1761-2.07346-.15724-2.59587-.9246-1.01077-2.04057-.16787-1.85154 2.23517.0636.8084.26443 2.19033.53292 3.04209l.48817 1.54863.34358-1.16638c.18897-.64151.47882-2.02015.64411-3.06364z"
       id="path6" /><path
       style="fill:#000000;stroke-width:0.178255"
       d="m -11.9894,173.18529 0.852018,-0.1511"
       id="path398" /><g
       style="fill:#000000"
       id="g448"
       transform="matrix(0.07657077,0,0,0.0645478,-22.312064,160.81118)"><g
         id="XMLID_509_">
	<path
   id="XMLID_510_"
   d="m 65,330 h 200 c 8.284,0 15,-6.716 15,-15 V 145 c 0,-8.284 -6.716,-15 -15,-15 H 250 V 85 C 250,38.131 211.869,0 165,0 118.131,0 80,38.131 80,85 v 45 H 65 c -8.284,0 -15,6.716 -15,15 v 170 c 0,8.284 6.716,15 15,15 z M 180,234.986 V 255 c 0,8.284 -6.716,15 -15,15 -8.284,0 -15,-6.716 -15,-15 v -20.014 c -6.068,-4.565 -10,-11.824 -10,-19.986 0,-13.785 11.215,-25 25,-25 13.785,0 25,11.215 25,25 0,8.162 -3.932,15.421 -10,19.986 z M 110,85 c 0,-30.327 24.673,-55 55,-55 30.327,0 55,24.673 55,55 v 45 H 110 Z" />
</g></g></g></svg>
